<svg xmlns="http://www.w3.org/2000/svg" viewBox="0 0 32 32"><defs><linearGradient id="a" x1="32.07%" x2="70.85%" y1="0%" y2="100%"><stop offset="0%" stop-color="#53504E"/><stop offset="55.76%" stop-color="#000000"/><stop offset="100%" stop-color="#000000"/></linearGradient></defs><g fill="none" fill-rule="evenodd"><path fill="url(#a)" d="M7.7 0h16.6c2.68 0 3.65.28 4.63.8a5.45 5.45 0 0 1 2.27 2.27c.52.98.8 1.95.8 4.62v16.62c0 2.67-.28 3.64-.8 4.62a5.45 5.45 0 0 1-2.27 2.27c-.98.52-1.95.8-4.62.8H7.69c-2.67 0-3.64-.28-4.62-.8A5.45 5.45 0 0 1 .8 28.93c-.52-.98-.8-1.95-.8-4.62V7.69c0-2.67.28-3.64.8-4.62A5.45 5.45 0 0 1 3.07.8C4.05.28 5.02 0 7.69 0z"/><g transform="translate(2 9)"><path fill="#FFC54E" d="M23.7 6.61a.4.4 0 0 1-.34-.2 10.68 10.68 0 0 0-18.8 0 .4.4 0 0 1-.7-.38 11.48 11.48 0 0 1 20.2 0 .4.4 0 0 1-.35.58m-8.88 2.8a1.52 1.52 0 0 0-1.1-.43c-.42 0-.91.17-1.2.52v-.1a.32.32 0 0 0-.16-.31.4.4 0 0 0-.41 0 .32.32 0 0 0-.16.3v3.39c0 .12.05.24.16.3a.4.4 0 0 0 .4 0 .31.31 0 0 0 .16-.3V10.9c0-.42.12-.72.35-.9.25-.21.52-.31.85-.31.55 0 .86.39.86 1.07v2c-.01.13.05.25.16.31a.4.4 0 0 0 .2.06.4.4 0 0 0 .2-.06c.1-.06.17-.18.16-.3v-2.01c0-.58-.16-1.05-.47-1.37"/><path fill="#FFFFFF" d="M21.32 10.12h-1.77a.33.33 0 0 0-.35.34c0 .17.12.34.35.34h1.37c-.18 1.08-.86 1.65-1.97 1.65-.63 0-1.17-.22-1.6-.66a2.3 2.3 0 0 1-.64-1.63c0-.64.22-1.19.65-1.63a2.1 2.1 0 0 1 1.59-.67c.43 0 .84.11 1.2.34.19.15.37.14.5-.02a.37.37 0 0 0-.04-.53 2.86 2.86 0 0 0-1.66-.51A2.94 2.94 0 0 0 16 10.16a2.96 2.96 0 0 0 2.95 3c1.65 0 2.61-.92 2.72-2.62 0-.2-.04-.42-.35-.42M10.59 7.74c-.28-.35-.7-.53-1.27-.53H7.06c-.2 0-.36.16-.37.36v5.18c0 .13.05.25.16.31a.4.4 0 0 0 .2.06.4.4 0 0 0 .2-.06.31.31 0 0 0 .16-.3v-1.9h1.9c.57 0 1-.18 1.28-.53.28-.36.42-.78.42-1.3 0-.5-.14-.93-.42-1.29m-.3 1.3c0 .7-.37 1.1-1.02 1.1H7.41V7.92h1.9c.73 0 .98.58.98 1.12M5.05 8.02a2.82 2.82 0 0 0-2.1-.88c-.82 0-1.53.3-2.1.88A2.91 2.91 0 0 0 0 10.16a2.96 2.96 0 1 0 5.91 0c0-.83-.29-1.55-.86-2.14m-2.1 4.43c-.63 0-1.16-.22-1.6-.66a2.3 2.3 0 0 1-.63-1.63c0-.64.21-1.19.64-1.63a2.1 2.1 0 0 1 1.6-.67 2.27 2.27 0 0 1 2.24 2.3c0 .64-.22 1.18-.65 1.63-.43.44-.97.66-1.6.66m24.07-4.43a2.82 2.82 0 0 0-2.1-.88 2.94 2.94 0 0 0-2.95 3.02 2.96 2.96 0 1 0 5.92 0 3 3 0 0 0-.87-2.14m.15 2.14c0 .64-.22 1.18-.65 1.63-.43.44-.97.66-1.6.66-.62 0-1.16-.22-1.6-.66a2.3 2.3 0 0 1-.63-1.63c0-.64.22-1.19.65-1.63a2.1 2.1 0 0 1 1.59-.67c.63 0 1.16.22 1.6.67.42.44.64 1 .64 1.63"/></g></g></svg>